<svg width="216" height="42" viewBox="0 0 216 42" fill="none" xmlns="http://www.w3.org/2000/svg">
<path d="M16.9106 3.30615C18.0955 3.30615 19.1323 3.45996 20.021 3.76758C20.9211 4.0752 21.673 4.50244 22.2769 5.04932C22.8807 5.5848 23.3307 6.21712 23.627 6.94629C23.9346 7.66406 24.0884 8.43311 24.0884 9.25342C24.0884 10.1535 23.9346 11.0194 23.627 11.8511C23.3307 12.6714 22.9149 13.4518 22.3794 14.1924C21.8553 14.9329 21.2344 15.6279 20.5166 16.2773C19.7988 16.9268 19.0298 17.5192 18.2095 18.0547C17.3892 18.5902 16.5347 19.0687 15.646 19.4902C14.7687 19.9118 13.8971 20.265 13.0312 20.5498C13.6465 21.0967 14.2048 21.7347 14.7061 22.4639C15.2074 23.1816 15.6859 23.9507 16.1416 24.771C16.5973 25.5799 17.0474 26.4116 17.4917 27.2661C17.936 28.1206 18.4032 28.9523 18.8931 29.7612C19.383 30.5588 19.9128 31.3164 20.4824 32.0342C21.0635 32.752 21.7186 33.3786 22.4478 33.9141C23.1883 34.4609 24.0143 34.8882 24.9258 35.1958C25.8372 35.5148 26.8797 35.6743 28.0532 35.6743L28.1216 36.375C27.9735 36.4092 27.8026 36.4377 27.6089 36.4604C27.4494 36.4832 27.25 36.5003 27.0107 36.5117C26.7715 36.5345 26.498 36.5459 26.1904 36.5459C24.7093 36.5459 23.4162 36.375 22.311 36.0332C21.2059 35.7028 20.2432 35.2471 19.4229 34.666C18.6139 34.0964 17.9246 33.4299 17.355 32.6665C16.7853 31.9146 16.284 31.117 15.8511 30.2739C15.4295 29.4194 15.0592 28.5535 14.7402 27.6763C14.4212 26.7876 14.1022 25.9331 13.7832 25.1128C13.4756 24.2811 13.1452 23.512 12.792 22.8057C12.4502 22.0879 12.04 21.4784 11.5615 20.9771C11.3337 21.034 11.1058 21.0796 10.8779 21.1138C10.6615 21.1479 10.445 21.1821 10.2285 21.2163C10.2171 22.0366 10.2 22.7487 10.1772 23.3525C10.1659 23.945 10.1488 24.4691 10.126 24.9248C10.1032 25.3691 10.0747 25.7622 10.0405 26.104C10.0063 26.4458 9.96647 26.7762 9.9209 27.0952C9.79557 27.9839 9.61328 28.7415 9.37402 29.3682C9.13477 29.9834 8.84424 30.4904 8.50244 30.8892C8.16064 31.2765 7.76758 31.5614 7.32324 31.7437C6.8903 31.9146 6.41178 32 5.8877 32C5.14714 32 4.45215 31.7835 3.80273 31.3506C3.16471 30.9176 2.61214 30.2739 2.14502 29.4194C1.6779 28.5649 1.30762 27.5054 1.03418 26.2407C0.772135 24.9761 0.641113 23.512 0.641113 21.8486C0.641113 20.1055 0.829102 18.4364 1.20508 16.8413C1.58105 15.2349 2.11084 13.748 2.79443 12.3809C3.48942 11.0023 4.32682 9.75472 5.30664 8.63818C6.28646 7.52165 7.37451 6.57031 8.5708 5.78418C9.77848 4.98665 11.083 4.37712 12.4844 3.95557C13.8971 3.52262 15.3726 3.30615 16.9106 3.30615ZM6.41748 19.9175C6.41748 19.6213 6.53141 19.3706 6.75928 19.1655C6.99854 18.9491 7.31755 18.8066 7.71631 18.7383C7.69352 17.6217 7.66504 16.6021 7.63086 15.6792C7.59668 14.7563 7.5682 13.9588 7.54541 13.2866C7.51123 12.5005 7.48275 11.7941 7.45996 11.1675C7.53971 11.0991 7.63086 11.0422 7.7334 10.9966C7.82454 10.951 7.93278 10.9111 8.05811 10.877C8.18343 10.8428 8.33724 10.8257 8.51953 10.8257C9.04362 10.8257 9.46517 10.9225 9.78418 11.1162C10.1032 11.2985 10.2627 11.6118 10.2627 12.0562C10.2627 13.4006 10.2627 14.6481 10.2627 15.7988C10.2627 16.9382 10.2513 18.0091 10.2285 19.0117C10.5931 19.1143 10.9406 19.2453 11.271 19.4048C11.6128 19.5529 11.9318 19.7238 12.228 19.9175C13.2762 19.6326 14.3301 19.2225 15.3896 18.687C16.4492 18.1515 17.4006 17.4736 18.2437 16.6533C19.0981 15.8216 19.7874 14.8418 20.3115 13.7139C20.847 12.5745 21.1147 11.2643 21.1147 9.7832C21.1147 8.81478 20.978 7.98877 20.7046 7.30518C20.4425 6.62158 20.0837 6.06331 19.6279 5.63037C19.1722 5.18604 18.631 4.86133 18.0044 4.65625C17.3892 4.45117 16.734 4.34863 16.0391 4.34863C14.877 4.34863 13.7319 4.51953 12.604 4.86133C11.4875 5.19173 10.4279 5.69873 9.42529 6.38232C8.43408 7.06592 7.51693 7.9318 6.67383 8.97998C5.84212 10.0282 5.11865 11.2643 4.50342 12.6885C3.89958 14.1126 3.42676 15.7305 3.08496 17.542C2.74316 19.3535 2.57227 21.3701 2.57227 23.5918C2.57227 24.5602 2.61784 25.5002 2.70898 26.4116C2.81152 27.3117 2.97673 28.1149 3.20459 28.8213C3.43245 29.5163 3.73438 30.0745 4.11035 30.4961C4.49772 30.9176 4.97624 31.1284 5.5459 31.1284C5.85352 31.1284 6.14404 31.0658 6.41748 30.9404C6.69092 30.8151 6.93018 30.5588 7.13525 30.1714C7.34033 29.7726 7.50553 29.2087 7.63086 28.4795C7.75618 27.7389 7.81885 26.7534 7.81885 25.5229C7.81885 25.0786 7.81885 24.6855 7.81885 24.3438C7.81885 23.9906 7.81885 23.6545 7.81885 23.3354C7.81885 23.005 7.81315 22.6746 7.80176 22.3442C7.80176 22.0138 7.79606 21.6493 7.78467 21.2505C7.35173 21.1479 7.01562 20.9827 6.77637 20.7549C6.53711 20.527 6.41748 20.2479 6.41748 19.9175ZM7.28906 19.9175C7.28906 20.0314 7.30615 20.1283 7.34033 20.208C7.3859 20.2878 7.52262 20.3561 7.75049 20.4131V19.6099C7.44287 19.6782 7.28906 19.7808 7.28906 19.9175ZM10.2285 20.3447C10.3197 20.3447 10.4051 20.339 10.4849 20.3276C10.576 20.3162 10.6672 20.2992 10.7583 20.2764C10.6672 20.2194 10.576 20.1681 10.4849 20.1226C10.4051 20.077 10.3197 20.0371 10.2285 20.0029V20.3447ZM24.0884 24.4805L23.9175 24.8223L23.7466 25.1812L23.0459 24.6514L23.2168 24.2925C23.5016 23.7114 23.7352 23.1304 23.9175 22.5493C24.1112 21.9569 24.265 21.4043 24.3789 20.8916C24.5042 20.3789 24.6068 19.9289 24.6865 19.5415C24.7663 19.1541 24.846 18.875 24.9258 18.7041C24.9941 18.5674 25.091 18.4591 25.2163 18.3794C25.353 18.2882 25.4897 18.2142 25.6265 18.1572C25.7746 18.1003 25.9113 18.0604 26.0366 18.0376C26.1733 18.0148 26.2702 18.0034 26.3271 18.0034C26.5778 18.0034 26.743 18.0547 26.8228 18.1572C26.9139 18.2598 26.9595 18.4421 26.9595 18.7041C26.9595 18.8294 26.931 19.1427 26.874 19.644C26.8285 20.134 26.7715 20.7549 26.7031 21.5068C26.6462 22.2474 26.5892 23.0848 26.5322 24.019C26.4867 24.9419 26.4639 25.8989 26.4639 26.8901C26.4639 27.6079 26.498 28.1776 26.5664 28.5991C26.6348 29.0093 26.7202 29.3169 26.8228 29.522C26.9367 29.7271 27.0563 29.8581 27.1816 29.915C27.3184 29.972 27.4551 30.0005 27.5918 30.0005C27.7741 30.0005 27.9792 29.9207 28.207 29.7612C28.4349 29.6017 28.7026 29.3226 29.0103 28.9238C29.3179 28.5137 29.6711 27.9668 30.0698 27.2832C30.4686 26.5882 30.9357 25.7109 31.4712 24.6514L31.6592 24.2925L32.3599 24.8223L32.1719 25.1812C31.7389 26.0243 31.306 26.856 30.873 27.6763C30.4515 28.4966 30.0186 29.2257 29.5742 29.8638C29.1413 30.5018 28.7026 31.0202 28.2583 31.4189C27.814 31.8063 27.3696 32 26.9253 32C26.4582 32 26.0537 31.9089 25.7119 31.7266C25.3815 31.5329 25.1024 31.2196 24.8745 30.7866C24.658 30.3537 24.4928 29.784 24.3789 29.0776C24.2764 28.3599 24.2251 27.4769 24.2251 26.4287C24.2251 26.1325 24.2251 25.8249 24.2251 25.5059C24.2251 25.1755 24.2365 24.8337 24.2593 24.4805H24.0884ZM27.5918 14.5C27.5918 14.8988 27.4551 15.2349 27.1816 15.5083C26.9196 15.7703 26.5892 15.9014 26.1904 15.9014C25.8031 15.9014 25.4727 15.7703 25.1992 15.5083C24.9258 15.2349 24.7891 14.8988 24.7891 14.5C24.7891 14.1126 24.9258 13.7822 25.1992 13.5088C25.4727 13.2354 25.8031 13.0986 26.1904 13.0986C26.5892 13.0986 26.9196 13.2354 27.1816 13.5088C27.4551 13.7822 27.5918 14.1126 27.5918 14.5ZM37.4355 22.2417C37.5723 22.0252 37.6862 21.7575 37.7773 21.4385C37.8799 21.1195 37.9312 20.8005 37.9312 20.4814C37.9312 20.0941 37.8343 19.758 37.6406 19.4731C37.4469 19.1883 37.0994 19.0459 36.5981 19.0459C36.2677 19.0459 35.9316 19.1655 35.5898 19.4048C35.248 19.644 34.929 20.0029 34.6328 20.4814C34.348 20.96 34.1144 21.5638 33.9321 22.293C33.7498 23.0221 33.6587 23.8766 33.6587 24.8564C33.6587 25.6312 33.7384 26.3376 33.8979 26.9756C34.0575 27.6136 34.291 28.1605 34.5986 28.6162C34.9062 29.0719 35.2765 29.4308 35.7095 29.6929C36.1538 29.9435 36.6494 30.0688 37.1963 30.0688C37.5951 30.0688 37.9995 29.9663 38.4097 29.7612C38.8312 29.5562 39.2528 29.2371 39.6743 28.8042C40.1073 28.3713 40.5516 27.813 41.0073 27.1294C41.4631 26.4344 41.9302 25.6084 42.4087 24.6514L42.5796 24.2925L43.2803 24.8223L43.1094 25.1812C42.4941 26.4002 41.8789 27.4427 41.2637 28.3086C40.6598 29.1745 40.0617 29.8809 39.4692 30.4277C38.8768 30.9746 38.2957 31.3734 37.7261 31.624C37.1678 31.8747 36.6266 32 36.1025 32C35.362 32 34.7012 31.8462 34.1201 31.5386C33.5391 31.231 33.0492 30.8151 32.6504 30.291C32.2516 29.7555 31.944 29.1403 31.7275 28.4453C31.5225 27.7389 31.4199 26.9984 31.4199 26.2236C31.4199 24.9932 31.5851 23.8766 31.9155 22.874C32.2573 21.86 32.696 20.9941 33.2314 20.2764C33.7669 19.5586 34.3708 19.0003 35.043 18.6016C35.7152 18.2028 36.3931 18.0034 37.0767 18.0034C37.6007 18.0034 38.0394 18.0775 38.3926 18.2256C38.7458 18.3737 39.0306 18.5617 39.2471 18.7896C39.4635 19.0174 39.6174 19.2624 39.7085 19.5244C39.7996 19.7865 39.8452 20.0371 39.8452 20.2764C39.8452 20.5156 39.7939 20.7663 39.6914 21.0283C39.5889 21.279 39.4351 21.5182 39.23 21.7461C39.0363 21.9626 38.8027 22.1619 38.5293 22.3442C38.2559 22.5151 37.9482 22.6405 37.6064 22.7202L37.4355 22.2417ZM44.8696 26.0527C44.8696 26.611 44.8525 27.2035 44.8184 27.8301C44.7842 28.4453 44.7101 29.0662 44.5962 29.6929C44.4937 30.3081 44.3398 30.9119 44.1348 31.5044C43.9297 32.0854 43.6506 32.6266 43.2974 33.1279L41.9985 32.7349C42.2834 31.7778 42.4543 30.7752 42.5112 29.7271C42.5682 28.6789 42.5967 27.6307 42.5967 26.5825C42.5967 25.4432 42.5625 24.3039 42.4941 23.1646C42.4144 22.0252 42.3289 20.8859 42.2378 19.7466C42.1353 18.5959 42.0498 17.4395 41.9814 16.2773C41.9017 15.1152 41.8618 13.9417 41.8618 12.7568C41.8618 12.0391 41.9416 11.4124 42.1011 10.877C42.2492 10.3415 42.4486 9.89714 42.6992 9.54395C42.9499 9.19076 43.229 8.92871 43.5366 8.75781C43.8442 8.57552 44.1519 8.48438 44.4595 8.48438C44.8924 8.48438 45.2342 8.63818 45.4849 8.9458C45.7469 9.25342 45.9406 9.66927 46.0659 10.1934C46.1912 10.7174 46.2539 11.327 46.2539 12.022C46.2653 12.717 46.2368 13.4518 46.1685 14.2266C46.1001 15.0013 46.0033 15.7931 45.8779 16.6021C45.7526 17.411 45.6159 18.1971 45.4678 18.9604C45.3197 19.7238 45.1715 20.4359 45.0234 21.0967C44.8867 21.7575 44.7671 22.3215 44.6646 22.7886C44.6646 22.8797 44.6702 22.9766 44.6816 23.0791C44.693 23.1702 44.6987 23.2614 44.6987 23.3525C44.938 22.8171 45.2285 22.2417 45.5703 21.6265C45.9235 20.9998 46.3166 20.4188 46.7495 19.8833C47.1938 19.3478 47.6724 18.9035 48.1851 18.5503C48.7091 18.1857 49.2617 18.0034 49.8428 18.0034C50.6973 18.0034 51.341 18.2882 51.7739 18.8579C52.2069 19.4276 52.4233 20.2479 52.4233 21.3188C52.4233 22.0594 52.3835 22.7715 52.3037 23.4551C52.224 24.1387 52.1328 24.7995 52.0303 25.4375C51.9391 26.0641 51.8537 26.6737 51.7739 27.2661C51.6942 27.8586 51.6543 28.4453 51.6543 29.0264C51.6543 29.7214 51.8309 30.0688 52.1841 30.0688C52.355 30.0688 52.5715 29.9207 52.8335 29.6245C53.1069 29.3169 53.4089 28.9124 53.7393 28.4111C54.0697 27.9098 54.4172 27.3345 54.7817 26.6851C55.1463 26.0356 55.5052 25.3577 55.8584 24.6514L56.0293 24.2925L56.73 24.8223L56.5591 25.1812C56.1603 25.9673 55.7445 26.7648 55.3115 27.5737C54.8786 28.3826 54.4342 29.1175 53.9785 29.7783C53.5228 30.4277 53.0557 30.9632 52.5771 31.3848C52.11 31.7949 51.6429 32 51.1758 32C50.9707 32 50.7599 31.9658 50.5435 31.8975C50.3384 31.8291 50.1504 31.7095 49.9795 31.5386C49.8086 31.3677 49.6662 31.1398 49.5522 30.855C49.4383 30.5588 49.3813 30.1828 49.3813 29.7271C49.3813 29.2713 49.4041 28.7757 49.4497 28.2402C49.4953 27.7048 49.5465 27.1579 49.6035 26.5996C49.6719 26.0299 49.7459 25.466 49.8257 24.9077C49.9054 24.3494 49.9738 23.8254 50.0308 23.3354C50.0991 22.8455 50.1561 22.4069 50.2017 22.0195C50.2472 21.6208 50.27 21.2961 50.27 21.0454C50.27 20.396 50.1789 19.9232 49.9966 19.627C49.8143 19.3307 49.5409 19.1826 49.1763 19.1826C48.7205 19.1826 48.2819 19.382 47.8604 19.7808C47.4388 20.1795 47.04 20.6808 46.6641 21.2847C46.2995 21.8771 45.9634 22.5208 45.6558 23.2158C45.3481 23.8994 45.0747 24.5317 44.8354 25.1128C44.8354 25.2837 44.8411 25.4546 44.8525 25.6255C44.8639 25.785 44.8696 25.9274 44.8696 26.0527ZM43.7588 11.4238C43.7588 11.891 43.7759 12.4606 43.8101 13.1328C43.8556 13.7936 43.9069 14.5114 43.9639 15.2861C44.0322 16.0609 44.1006 16.8698 44.1689 17.7129C44.2487 18.556 44.3285 19.3877 44.4082 20.208C44.5335 19.57 44.6589 18.8693 44.7842 18.106C44.9095 17.3312 45.0177 16.5565 45.1089 15.7817C45.2114 14.9956 45.2855 14.2323 45.3311 13.4917C45.388 12.7511 45.3994 12.096 45.3652 11.5264C45.3424 10.9567 45.2684 10.501 45.1431 10.1592C45.0177 9.80599 44.8354 9.62939 44.5962 9.62939C44.3797 9.62939 44.186 9.76042 44.0151 10.0225C43.8442 10.2845 43.7588 10.7516 43.7588 11.4238ZM66.3857 27.7617C66.3857 28.4111 66.4427 28.958 66.5566 29.4023C66.6706 29.8467 66.87 30.0688 67.1548 30.0688C67.3257 30.0688 67.508 29.9891 67.7017 29.8296C67.9067 29.6587 68.1403 29.3853 68.4023 29.0093C68.6644 28.6333 68.9606 28.1491 69.291 27.5566C69.6328 26.9528 70.0202 26.2179 70.4531 25.3521L70.9658 24.2925L71.6665 24.8223L71.1538 25.8818C70.6753 26.8389 70.2253 27.6991 69.8037 28.4624C69.3936 29.2144 69.0005 29.8524 68.6245 30.3765C68.2485 30.9006 67.8783 31.305 67.5137 31.5898C67.1605 31.8633 66.8073 32 66.4541 32C66.0781 32 65.7591 31.8975 65.4971 31.6924C65.2464 31.4873 65.0356 31.2082 64.8647 30.855C64.6938 30.4904 64.5628 30.0745 64.4717 29.6074C64.3805 29.1289 64.3179 28.6219 64.2837 28.0864C64.0103 28.6333 63.7083 29.146 63.3779 29.6245C63.0475 30.0916 62.7 30.5018 62.3354 30.855C61.9823 31.2082 61.612 31.4873 61.2246 31.6924C60.8372 31.8975 60.4499 32 60.0625 32C59.4928 32 58.9403 31.8804 58.4048 31.6411C57.8693 31.4019 57.3908 31.0373 56.9692 30.5474C56.5591 30.0575 56.2287 29.4422 55.978 28.7017C55.7274 27.9497 55.6021 27.0667 55.6021 26.0527C55.6021 24.8678 55.7559 23.7855 56.0635 22.8057C56.3711 21.8145 56.7869 20.9657 57.311 20.2593C57.8351 19.5415 58.439 18.9889 59.1226 18.6016C59.8062 18.2028 60.5239 18.0034 61.2759 18.0034C61.7316 18.0034 62.1532 18.106 62.5405 18.311C62.9279 18.5161 63.264 18.7668 63.5488 19.063C63.8451 19.3478 64.09 19.6554 64.2837 19.9858C64.4774 20.3049 64.6084 20.5783 64.6768 20.8062L64.8818 19.1484C64.9046 18.932 65.0072 18.7497 65.1895 18.6016C65.3831 18.4535 65.5939 18.3395 65.8218 18.2598C66.0496 18.1686 66.2718 18.106 66.4883 18.0718C66.7048 18.0262 66.8586 18.0034 66.9497 18.0034C67.0864 18.0034 67.1776 18.0262 67.2231 18.0718C67.2687 18.1174 67.2915 18.2085 67.2915 18.3452C67.2915 18.5161 67.2402 18.8636 67.1377 19.3877C67.0465 19.9004 66.944 20.5612 66.8301 21.3701C66.7275 22.1676 66.625 23.1076 66.5225 24.1899C66.4313 25.2723 66.3857 26.4629 66.3857 27.7617ZM64.5059 23.25C64.5059 22.7259 64.4261 22.2132 64.2666 21.7119C64.1071 21.1992 63.8906 20.7492 63.6172 20.3618C63.3438 19.9631 63.0247 19.644 62.6602 19.4048C62.307 19.1655 61.931 19.0459 61.5322 19.0459C61.0423 19.0459 60.5809 19.1883 60.1479 19.4731C59.7264 19.7466 59.3561 20.1396 59.0371 20.6523C58.7295 21.1536 58.4845 21.7632 58.3022 22.481C58.12 23.1873 58.0288 23.9678 58.0288 24.8223C58.0288 26.5312 58.2965 27.8358 58.832 28.7358C59.3675 29.6245 60.0796 30.0688 60.9683 30.0688C61.3556 30.0688 61.7544 29.915 62.1646 29.6074C62.5861 29.2884 62.9678 28.8384 63.3096 28.2573C63.6628 27.6649 63.9476 26.9471 64.1641 26.104C64.3919 25.2609 64.5059 24.3096 64.5059 23.25ZM70.7949 24.6514L70.9658 24.2925C71.1367 23.9507 71.2905 23.5975 71.4272 23.2329C71.5754 22.8683 71.7007 22.5265 71.8032 22.2075C71.9058 21.8771 71.9855 21.5866 72.0425 21.3359C72.0994 21.0739 72.1393 20.8745 72.1621 20.7378C71.8659 20.7036 71.5811 20.6296 71.3076 20.5156C71.0342 20.4017 70.7949 20.2479 70.5898 20.0542C70.3848 19.8605 70.2253 19.6326 70.1113 19.3706C69.986 19.1086 69.9233 18.8123 69.9233 18.4819C69.9233 18.2199 69.9689 17.9863 70.0601 17.7812C70.1512 17.5762 70.2765 17.4053 70.436 17.2686C70.5841 17.1318 70.755 17.0293 70.9487 16.9609C71.131 16.8812 71.3247 16.8413 71.5298 16.8413C71.8032 16.8413 72.0425 16.8983 72.2476 17.0122C72.4526 17.1261 72.6235 17.2799 72.7603 17.4736C72.897 17.6559 72.9995 17.8724 73.0679 18.123C73.1362 18.3623 73.1704 18.613 73.1704 18.875C73.4894 18.875 73.8312 18.8294 74.1958 18.7383C74.5718 18.6471 74.9478 18.5503 75.3237 18.4478C75.6997 18.3338 76.07 18.2313 76.4346 18.1401C76.7992 18.049 77.1353 18.0034 77.4429 18.0034C77.7049 18.0034 77.9157 18.0604 78.0752 18.1743C78.2347 18.2769 78.3145 18.4535 78.3145 18.7041C78.3145 18.8864 78.2575 19.1883 78.1436 19.6099C78.041 20.0314 77.91 20.5213 77.7505 21.0796C77.591 21.6379 77.4144 22.2474 77.2207 22.9082C77.0384 23.5576 76.8675 24.2184 76.708 24.8906C76.5485 25.5514 76.4118 26.1951 76.2979 26.8218C76.1953 27.4484 76.144 28.0067 76.144 28.4966C76.144 29.1118 76.2124 29.5277 76.3491 29.7441C76.4858 29.9606 76.7308 30.0688 77.084 30.0688C77.2321 30.0688 77.4144 30.0062 77.6309 29.8809C77.8587 29.7441 78.1322 29.4878 78.4512 29.1118C78.7702 28.7244 79.1462 28.1776 79.5791 27.4712C80.0234 26.7534 80.5361 25.8135 81.1172 24.6514L81.2881 24.2925L81.9888 24.8223L81.8179 25.1812C81.1343 26.5483 80.5247 27.6706 79.9893 28.5479C79.4538 29.4251 78.9582 30.1201 78.5024 30.6328C78.0581 31.1455 77.6366 31.5044 77.2378 31.7095C76.839 31.9032 76.4403 32 76.0415 32C75.3693 32 74.8224 31.7437 74.4009 31.231C73.9793 30.7183 73.7686 29.9264 73.7686 28.8555C73.7686 28.2744 73.8483 27.6706 74.0078 27.0439C74.1673 26.4173 74.3667 25.7964 74.606 25.1812C74.8452 24.5545 75.113 23.9393 75.4092 23.3354C75.7054 22.7316 75.9845 22.1619 76.2466 21.6265C76.52 21.0796 76.765 20.5726 76.9814 20.1055C77.1979 19.6383 77.3517 19.2282 77.4429 18.875L77.3403 18.7725C77.158 18.7725 76.9131 18.8693 76.6055 19.063C76.2979 19.2567 75.9504 19.4788 75.563 19.7295C75.187 19.9688 74.7826 20.1966 74.3496 20.4131C73.9167 20.6296 73.478 20.7606 73.0337 20.8062C73.0109 20.9657 72.9596 21.1992 72.8799 21.5068C72.8115 21.8145 72.7147 22.1562 72.5894 22.5322C72.464 22.9082 72.3216 23.2956 72.1621 23.6943C72.0026 24.0931 71.8374 24.4691 71.6665 24.8223L71.4956 25.1812L70.7949 24.6514ZM71.6323 17.7983C71.5298 17.7983 71.4443 17.8325 71.376 17.9009C71.3076 17.9692 71.2734 18.049 71.2734 18.1401C71.2734 18.2769 71.3076 18.3965 71.376 18.499C71.4443 18.5902 71.5298 18.6699 71.6323 18.7383C71.7349 18.7952 71.8374 18.8408 71.9399 18.875C72.0539 18.8978 72.1507 18.9092 72.2305 18.9092C72.2305 18.5902 72.1792 18.3281 72.0767 18.123C71.9741 17.9066 71.826 17.7983 71.6323 17.7983ZM84.7573 32C84.0623 32 83.4585 31.8519 82.9458 31.5557C82.4445 31.2594 82.0286 30.8607 81.6982 30.3594C81.3678 29.8467 81.1229 29.2599 80.9634 28.5991C80.8039 27.9383 80.7241 27.2376 80.7241 26.4971C80.7241 25.8477 80.7868 25.1868 80.9121 24.5146C81.0374 23.8424 81.214 23.193 81.4419 22.5664C81.6812 21.9284 81.9774 21.3359 82.3306 20.7891C82.6838 20.2308 83.0882 19.7466 83.5439 19.3364C83.9997 18.9263 84.5067 18.6016 85.0649 18.3623C85.6346 18.123 86.2441 18.0034 86.8936 18.0034C87.6341 18.0034 88.2607 18.1686 88.7734 18.499C89.2975 18.8294 89.7191 19.2339 90.0381 19.7124C90.0495 17.5591 90.1577 15.6564 90.3628 14.0044C90.5679 12.3524 90.8527 10.9681 91.2173 9.85156C91.5933 8.73503 92.0376 7.89193 92.5503 7.32227C93.063 6.74121 93.627 6.45068 94.2422 6.45068C94.4587 6.45068 94.6523 6.47917 94.8232 6.53613C95.0055 6.58171 95.1536 6.67285 95.2676 6.80957C95.3929 6.94629 95.484 7.13428 95.541 7.37354C95.6094 7.6014 95.6436 7.89762 95.6436 8.26221C95.6436 9.01416 95.5695 9.88005 95.4214 10.8599C95.2733 11.8283 95.0625 12.8879 94.7891 14.0386C94.5156 15.1779 94.1795 16.397 93.7808 17.6958C93.3934 18.9832 92.9604 20.3219 92.4819 21.7119C92.4933 22.931 92.5104 23.9849 92.5332 24.8735C92.556 25.7622 92.5845 26.5142 92.6187 27.1294C92.6642 27.7446 92.7155 28.2459 92.7725 28.6333C92.8408 29.0207 92.9149 29.3226 92.9946 29.5391C93.0858 29.7441 93.1883 29.8866 93.3022 29.9663C93.4276 30.0347 93.5643 30.0688 93.7124 30.0688C93.9744 30.0688 94.2365 29.9549 94.4985 29.7271C94.772 29.4878 95.0625 29.1403 95.3701 28.6846C95.6777 28.2174 96.0081 27.6478 96.3613 26.9756C96.7259 26.3034 97.1247 25.5286 97.5576 24.6514L97.7456 24.2925L98.4463 24.8223L98.2583 25.1812C97.5975 26.5142 97.0164 27.6193 96.5151 28.4966C96.0138 29.3625 95.5524 30.0575 95.1309 30.5815C94.7207 31.1056 94.3276 31.4759 93.9517 31.6924C93.5757 31.8975 93.1826 32 92.7725 32C92.3737 32 92.0262 31.9032 91.73 31.7095C91.4451 31.5044 91.2002 31.1911 90.9951 30.7695C90.79 30.3366 90.6248 29.7897 90.4995 29.1289C90.3742 28.4567 90.2773 27.6535 90.209 26.7192C89.8102 27.5168 89.4001 28.2402 88.9785 28.8896C88.557 29.5391 88.1183 30.0973 87.6626 30.5645C87.2183 31.0202 86.7511 31.3734 86.2612 31.624C85.7713 31.8747 85.27 32 84.7573 32ZM87.2354 18.875C86.6087 18.875 86.0618 19.0687 85.5947 19.4561C85.1276 19.832 84.7402 20.3276 84.4326 20.9429C84.125 21.5467 83.8971 22.2303 83.749 22.9937C83.6009 23.757 83.5269 24.5203 83.5269 25.2837C83.5269 25.9103 83.5724 26.5142 83.6636 27.0952C83.7661 27.6649 83.9142 28.1719 84.1079 28.6162C84.313 29.0605 84.5579 29.4137 84.8428 29.6758C85.1276 29.9378 85.458 30.0688 85.834 30.0688C86.1986 30.0688 86.5518 29.9777 86.8936 29.7954C87.2467 29.6131 87.5942 29.3226 87.936 28.9238C88.2778 28.5137 88.6253 27.9896 88.9785 27.3516C89.3317 26.7021 89.7077 25.916 90.1064 24.9932C90.0837 24.4463 90.0666 23.8652 90.0552 23.25C90.0438 22.6234 90.0381 21.9569 90.0381 21.2505C89.7874 20.5099 89.4058 19.9289 88.8931 19.5073C88.3918 19.0858 87.8392 18.875 87.2354 18.875ZM94.4131 8.89453C94.4131 8.37044 94.3504 8.00586 94.2251 7.80078C94.1112 7.5957 93.9744 7.49316 93.8149 7.49316C93.5415 7.49316 93.3193 7.7609 93.1484 8.29639C92.9775 8.82048 92.8408 9.53255 92.7383 10.4326C92.6471 11.3327 92.5788 12.3752 92.5332 13.5601C92.499 14.745 92.4819 15.9925 92.4819 17.3027V19.1826C92.8351 18.0319 93.137 16.9951 93.3877 16.0723C93.6383 15.1494 93.8377 14.2892 93.9858 13.4917C94.134 12.6942 94.2422 11.9251 94.3105 11.1846C94.3789 10.444 94.4131 9.68066 94.4131 8.89453Z" fill="white"/>
<path d="M111.081 8.25922C113.531 7.26717 116.166 9.04083 117.749 11.7915C118.259 12.6332 118.668 13.8357 119.505 14.0462C120.2 13.9409 120.618 12.994 121.027 12.2875C122.365 9.71722 124.478 7.9135 126.705 7.97363C128.206 7.98866 129.697 9.13102 130.493 11.0099C131.392 12.9639 131.535 15.444 131.3 17.7287C130.81 21.0356 129.349 23.9516 127.409 25.7403C125.142 28.0701 122.191 28.9569 120.373 32.2036C119.975 33.1205 118.984 33.0604 118.607 32.1585C117.442 30.0091 115.696 28.9118 114.052 27.7544C112.194 26.4016 110.315 24.8083 109.11 22.238C107.935 19.7579 107.241 16.5563 107.792 13.5652C108.18 11.1301 109.396 8.89052 111.081 8.25922ZM111.305 11.1301C110.07 11.8817 109.6 14.0011 109.539 15.8198C109.651 17.9692 110.335 20.0135 111.315 21.6067C112.888 23.9967 114.05 25.0625 116 26.6408C116.997 27.7544 118.8 28.7151 119.5 30.0979C120.2 28.7151 121.6 27.3322 122.467 26.3115C124.315 24.9136 126.337 23.7862 127.787 21.5316C128.767 19.8481 129.564 17.6987 129.431 15.414C129.451 13.7305 128.89 11.9418 127.838 11.1903C126.316 10.0629 124.54 11.2354 123.324 12.6934C121.599 14.7526 121.139 13.9559 120.547 16.9471C120.373 18.1346 119.158 18.5254 118.709 17.4431C117.851 14.2115 117.545 14.3919 115.41 12.3026C114.236 11.1001 112.663 10.1682 111.305 11.1301Z" fill="#FFFDFE"/>
<path d="M108.327 1.20748C111.79 0.540191 115.538 2.14901 117.774 5.37577C118.191 6.0065 118.784 6.5184 119.486 6.54582C120.142 6.49098 120.743 6.04307 121.144 5.43062C123.381 2.13986 127.183 0.521909 130.676 1.21662C132.458 1.56398 134.162 2.68832 135.242 4.42511C136.352 6.09791 136.9 8.21862 137 10.3302C136.946 13.8769 135.589 17.1951 133.776 19.9465C132.296 22.1861 130.522 24.1696 128.555 25.815C127.075 27.0216 125.563 28.1734 124.059 29.3434C122.802 30.3124 121.461 31.2082 120.497 32.5976C120.219 32.9633 120.011 33.5392 119.533 33.5574C119.147 33.6214 118.862 33.2741 118.669 32.945C117.674 31.3453 116.186 30.3581 114.805 29.2977C112.006 27.0856 109.037 25.0563 106.731 22.1038C104.278 19.0141 102.111 15.1566 102.011 10.7872C101.841 7.10342 103.631 3.22764 106.577 1.81993C107.14 1.51828 107.726 1.32632 108.327 1.20748ZM107.556 3.26421C104.579 4.36112 103.021 8.46543 103.577 11.9481C104.24 16.3084 106.746 19.8825 109.469 22.7345C112.114 25.3488 115.175 27.2867 117.967 29.6725C118.653 30.4404 119.772 30.6232 120.581 30.029C123.951 27.0399 127.846 24.8461 130.83 21.2537C132.704 18.9958 134.363 16.345 135.126 13.2644C135.643 11.2077 135.65 8.9042 134.818 6.95717C134.139 5.21124 132.874 3.7761 131.309 3.22764C129.388 2.53293 127.26 2.77973 125.417 3.71211C122.563 5.12897 120.504 8.46543 120.08 12.0853C119.964 12.2681 119.849 12.4509 119.741 12.6429C119.455 12.6246 119.17 12.5972 118.962 12.3503C118.715 11.5734 118.677 10.7415 118.445 9.97369C118.06 8.67567 117.443 7.48734 116.687 6.45441C114.52 3.41046 110.764 2.06674 107.556 3.26421Z" fill="#FFFDFE"/>
<path d="M160.944 26.1812C160.705 26.6483 160.425 27.0926 160.106 27.5142C159.799 27.9243 159.474 28.306 159.132 28.6592C158.791 29.001 158.449 29.32 158.107 29.6162C157.765 29.901 157.452 30.1517 157.167 30.3682V32.3335C157.167 33.826 157.047 35.1533 156.808 36.3154C156.58 37.4775 156.244 38.4631 155.8 39.272C155.367 40.0809 154.843 40.6961 154.228 41.1177C153.624 41.5392 152.946 41.75 152.194 41.75C151.784 41.75 151.408 41.6646 151.066 41.4937C150.724 41.3341 150.428 41.112 150.177 40.8271C149.938 40.5423 149.75 40.2062 149.613 39.8188C149.477 39.4429 149.408 39.0384 149.408 38.6055C149.408 37.7738 149.545 37.0047 149.818 36.2983C150.103 35.6034 150.485 34.9425 150.963 34.3159C151.442 33.7007 151.994 33.1139 152.621 32.5557C153.248 31.986 153.914 31.422 154.621 30.8638C154.632 30.2371 154.649 29.6162 154.672 29.001C154.706 28.3857 154.735 27.8047 154.757 27.2578C154.792 26.7109 154.82 26.2153 154.843 25.771C154.877 25.3267 154.905 24.9621 154.928 24.6772C154.541 25.4634 154.102 26.2381 153.612 27.0015C153.134 27.7534 152.621 28.4712 152.074 29.1548C151.527 29.8384 150.952 30.4707 150.348 31.0518C149.756 31.6214 149.158 32.117 148.554 32.5386C147.95 32.9601 147.346 33.2848 146.742 33.5127C146.15 33.752 145.58 33.8716 145.033 33.8716C144.418 33.8716 143.831 33.7463 143.273 33.4956C142.726 33.2563 142.242 32.8747 141.82 32.3506C141.41 31.8265 141.085 31.1543 140.846 30.334C140.596 29.5137 140.47 28.5339 140.47 27.3945C140.47 26.1185 140.613 24.8083 140.897 23.4639C141.182 22.1195 141.575 20.7865 142.077 19.4648C142.578 18.1432 143.176 16.8501 143.871 15.5854C144.566 14.3208 145.324 13.1302 146.144 12.0137C146.964 10.8857 147.836 9.85465 148.759 8.92041C149.682 7.97477 150.622 7.16016 151.579 6.47656C152.536 5.79297 153.493 5.26318 154.45 4.88721C155.418 4.49984 156.358 4.30615 157.27 4.30615C158.227 4.30615 158.99 4.55111 159.56 5.04102C160.141 5.51953 160.431 6.20312 160.431 7.0918C160.431 7.57031 160.329 8.03743 160.124 8.49316C159.93 8.9375 159.662 9.37044 159.32 9.79199C158.99 10.2021 158.614 10.5952 158.192 10.9712C157.771 11.3358 157.338 11.6719 156.894 11.9795C156.461 12.2871 156.028 12.5605 155.595 12.7998C155.173 13.0391 154.797 13.2384 154.467 13.3979L153.954 12.6973C154.387 12.4808 154.86 12.1732 155.373 11.7744C155.885 11.3757 156.364 10.9256 156.808 10.4243C157.252 9.92301 157.623 9.38184 157.919 8.80078C158.215 8.21973 158.363 7.63867 158.363 7.05762C158.363 6.56771 158.232 6.16325 157.97 5.84424C157.72 5.51383 157.315 5.34863 156.757 5.34863C155.891 5.34863 154.962 5.61637 153.971 6.15186C152.991 6.68734 152.012 7.43359 151.032 8.39062C150.063 9.34766 149.135 10.4927 148.246 11.8257C147.357 13.1473 146.571 14.5999 145.888 16.1836C145.204 17.7673 144.657 19.4478 144.247 21.2251C143.837 23.0024 143.632 24.8254 143.632 26.6938C143.632 27.5142 143.689 28.249 143.803 28.8984C143.928 29.5479 144.099 30.1004 144.315 30.5562C144.543 31.0005 144.817 31.348 145.136 31.5986C145.466 31.8379 145.836 31.9575 146.247 31.9575C146.748 31.9575 147.295 31.8037 147.887 31.4961C148.48 31.1885 149.072 30.7726 149.665 30.2485C150.268 29.7244 150.861 29.1206 151.442 28.437C152.023 27.742 152.558 27.0129 153.048 26.2495C153.538 25.4862 153.965 24.7114 154.33 23.9253C154.695 23.1392 154.962 22.3929 155.133 21.6865C155.202 20.8548 155.27 20.0972 155.338 19.4136C155.407 18.7186 155.469 18.109 155.526 17.585C155.595 17.0609 155.657 16.6393 155.714 16.3203C155.771 15.9899 155.823 15.7734 155.868 15.6709C155.959 15.5 156.09 15.3291 156.261 15.1582C156.432 14.9873 156.614 14.8392 156.808 14.7139C157.013 14.5771 157.213 14.4689 157.406 14.3892C157.6 14.3094 157.765 14.2695 157.902 14.2695C158.084 14.2695 158.204 14.3436 158.261 14.4917C158.329 14.6398 158.363 14.7993 158.363 14.9702C158.363 15.4715 158.278 16.138 158.107 16.9697C157.936 17.8014 157.72 18.7699 157.458 19.875C157.344 20.3535 157.258 20.9858 157.201 21.772C157.156 22.5467 157.121 23.3784 157.099 24.2671C157.087 25.1444 157.082 26.033 157.082 26.9331C157.082 27.8218 157.076 28.6193 157.064 29.3257C157.908 28.7104 158.58 28.0781 159.081 27.4287C159.594 26.7679 159.981 26.1755 160.243 25.6514L160.431 25.2925L161.132 25.8223L160.944 26.1812ZM154.586 32.1284C154.051 32.55 153.561 32.9943 153.117 33.4614C152.672 33.9285 152.291 34.4299 151.972 34.9653C151.664 35.5008 151.419 36.0819 151.237 36.7085C151.066 37.3465 150.98 38.0358 150.98 38.7764C150.98 39.4827 151.094 40.0068 151.322 40.3486C151.55 40.7018 151.841 40.8784 152.194 40.8784C152.547 40.8784 152.866 40.7246 153.151 40.417C153.447 40.1208 153.698 39.6252 153.903 38.9302C154.119 38.2466 154.285 37.3465 154.398 36.23C154.524 35.1134 154.586 33.7463 154.586 32.1284ZM164.123 30.8296C164.328 30.8296 164.561 30.6986 164.823 30.4365C165.097 30.1631 165.387 29.7928 165.695 29.3257C166.002 28.8586 166.327 28.3117 166.669 27.6851C167.011 27.0584 167.364 26.3805 167.729 25.6514L167.899 25.2925L168.6 25.8223L168.429 26.1812C167.825 27.3888 167.284 28.4256 166.806 29.2915C166.339 30.146 165.9 30.8524 165.49 31.4106C165.08 31.9575 164.687 32.362 164.311 32.624C163.946 32.8747 163.57 33 163.183 33C162.67 33 162.226 32.8348 161.85 32.5044C161.485 32.1626 161.177 31.5986 160.927 30.8125C160.688 30.015 160.511 28.9668 160.397 27.668C160.272 26.3691 160.209 24.7627 160.209 22.8486C160.209 20.137 160.323 17.8128 160.551 15.876C160.779 13.9277 161.086 12.3327 161.474 11.0908C161.872 9.83757 162.328 8.92041 162.841 8.33936C163.365 7.74691 163.912 7.45068 164.481 7.45068C164.823 7.45068 165.108 7.5931 165.336 7.87793C165.575 8.15137 165.695 8.65267 165.695 9.38184C165.695 9.9515 165.649 10.6009 165.558 11.3301C165.467 12.0592 165.347 12.8397 165.199 13.6714C165.051 14.5031 164.875 15.369 164.669 16.269C164.464 17.1577 164.248 18.0464 164.02 18.9351C163.792 19.8123 163.559 20.6782 163.319 21.5327C163.08 22.3758 162.847 23.1676 162.619 23.9082C162.687 25.3096 162.761 26.4603 162.841 27.3604C162.932 28.249 163.035 28.9497 163.148 29.4624C163.274 29.9751 163.416 30.334 163.576 30.5391C163.735 30.7327 163.917 30.8296 164.123 30.8296ZM164.584 9.79199C164.584 9.55273 164.556 9.36475 164.499 9.22803C164.442 9.09131 164.35 9.02295 164.225 9.02295C164.1 9.02295 163.974 9.19954 163.849 9.55273C163.724 9.90592 163.598 10.3844 163.473 10.9883C163.359 11.5921 163.251 12.2928 163.148 13.0903C163.057 13.8879 162.972 14.7367 162.892 15.6367C162.812 16.5254 162.75 17.4368 162.704 18.3711C162.659 19.3053 162.63 20.2054 162.619 21.0713C162.892 20.0687 163.143 19.0433 163.371 17.9951C163.61 16.9355 163.821 15.9102 164.003 14.9189C164.185 13.9277 164.328 12.9935 164.43 12.1162C164.533 11.2275 164.584 10.4528 164.584 9.79199ZM182.221 25.8223L182.033 26.1812C181.645 26.9559 181.127 27.5768 180.478 28.0439C179.84 28.4997 179.145 28.7959 178.393 28.9326C178.188 29.5137 177.92 30.0549 177.589 30.5562C177.27 31.0461 176.9 31.4733 176.479 31.8379C176.068 32.2025 175.601 32.4873 175.077 32.6924C174.564 32.8975 174.006 33 173.402 33C172.525 33 171.733 32.8177 171.027 32.4531C170.332 32.0771 169.739 31.5758 169.25 30.9492C168.76 30.3112 168.384 29.5706 168.122 28.7275C167.86 27.873 167.729 26.9616 167.729 25.9932C167.729 25.1501 167.825 24.3867 168.019 23.7031C168.213 23.0081 168.458 22.3929 168.754 21.8574C169.05 21.3105 169.381 20.8377 169.745 20.439C170.11 20.0288 170.469 19.6927 170.822 19.4307C171.175 19.1686 171.494 18.9749 171.779 18.8496C172.075 18.7129 172.297 18.6445 172.445 18.6445L172.667 19.2427C172.2 19.5845 171.785 20.063 171.42 20.6782C171.101 21.2023 170.81 21.8973 170.548 22.7632C170.298 23.6291 170.172 24.7057 170.172 25.9932C170.172 26.7793 170.246 27.5426 170.395 28.2832C170.543 29.0238 170.759 29.6789 171.044 30.2485C171.329 30.8182 171.676 31.2739 172.086 31.6157C172.508 31.9575 172.981 32.1284 173.505 32.1284C174.223 32.1284 174.815 31.8436 175.282 31.2739C175.761 30.6929 176.114 29.901 176.342 28.8984C175.749 28.7731 175.185 28.5396 174.65 28.1978C174.114 27.856 173.642 27.4344 173.231 26.9331C172.821 26.4204 172.491 25.8337 172.24 25.1729C172.001 24.512 171.881 23.7943 171.881 23.0195C171.881 22.3815 171.961 21.8232 172.121 21.3447C172.292 20.8548 172.514 20.4504 172.787 20.1313C173.061 19.8009 173.374 19.556 173.727 19.3965C174.092 19.2256 174.473 19.1401 174.872 19.1401C175.339 19.1401 175.818 19.2769 176.308 19.5503C176.798 19.8123 177.242 20.2111 177.641 20.7466C178.039 21.2707 178.364 21.9315 178.615 22.729C178.865 23.5265 178.991 24.4551 178.991 25.5146C178.991 25.9134 178.968 26.3065 178.922 26.6938C178.877 27.0812 178.808 27.4572 178.717 27.8218C179.264 27.6623 179.76 27.4059 180.204 27.0527C180.66 26.6995 181.036 26.2324 181.332 25.6514L181.52 25.2925L182.221 25.8223ZM173.009 22.8828C173.009 23.555 173.1 24.1759 173.283 24.7456C173.476 25.3039 173.733 25.7995 174.052 26.2324C174.371 26.654 174.741 27.0072 175.163 27.292C175.584 27.5768 176.034 27.7762 176.513 27.8901C176.57 27.5711 176.604 27.2407 176.615 26.8989C176.638 26.5457 176.649 26.1868 176.649 25.8223C176.649 25.0133 176.587 24.2842 176.461 23.6348C176.336 22.974 176.171 22.4157 175.966 21.96C175.761 21.4928 175.521 21.134 175.248 20.8833C174.975 20.6326 174.695 20.5073 174.411 20.5073C174.023 20.5073 173.693 20.7181 173.419 21.1396C173.146 21.5498 173.009 22.1309 173.009 22.8828ZM181.366 25.6514L181.537 25.2925C181.708 24.9507 181.862 24.5975 181.999 24.2329C182.147 23.8683 182.272 23.5265 182.375 23.2075C182.477 22.8771 182.557 22.5866 182.614 22.3359C182.671 22.0739 182.711 21.8745 182.733 21.7378C182.437 21.7036 182.152 21.6296 181.879 21.5156C181.605 21.4017 181.366 21.2479 181.161 21.0542C180.956 20.8605 180.797 20.6326 180.683 20.3706C180.557 20.1086 180.495 19.8123 180.495 19.4819C180.495 19.2199 180.54 18.9863 180.631 18.7812C180.722 18.5762 180.848 18.4053 181.007 18.2686C181.155 18.1318 181.326 18.0293 181.52 17.9609C181.702 17.8812 181.896 17.8413 182.101 17.8413C182.375 17.8413 182.614 17.8983 182.819 18.0122C183.024 18.1261 183.195 18.2799 183.332 18.4736C183.468 18.6559 183.571 18.8724 183.639 19.123C183.708 19.3623 183.742 19.613 183.742 19.875C184.061 19.875 184.403 19.8294 184.767 19.7383C185.143 19.6471 185.519 19.5503 185.895 19.4478C186.271 19.3338 186.641 19.2313 187.006 19.1401C187.37 19.049 187.707 19.0034 188.014 19.0034C188.276 19.0034 188.487 19.0604 188.646 19.1743C188.806 19.2769 188.886 19.4535 188.886 19.7041C188.886 19.8864 188.829 20.1883 188.715 20.6099C188.612 21.0314 188.481 21.5213 188.322 22.0796C188.162 22.6379 187.986 23.2474 187.792 23.9082C187.61 24.5576 187.439 25.2184 187.279 25.8906C187.12 26.5514 186.983 27.1951 186.869 27.8218C186.767 28.4484 186.715 29.0067 186.715 29.4966C186.715 30.1118 186.784 30.5277 186.92 30.7441C187.057 30.9606 187.302 31.0688 187.655 31.0688C187.803 31.0688 187.986 31.0062 188.202 30.8809C188.43 30.7441 188.703 30.4878 189.022 30.1118C189.341 29.7244 189.717 29.1776 190.15 28.4712C190.595 27.7534 191.107 26.8135 191.688 25.6514L191.859 25.2925L192.56 25.8223L192.389 26.1812C191.706 27.5483 191.096 28.6706 190.561 29.5479C190.025 30.4251 189.529 31.1201 189.074 31.6328C188.629 32.1455 188.208 32.5044 187.809 32.7095C187.41 32.9032 187.012 33 186.613 33C185.941 33 185.394 32.7437 184.972 32.231C184.551 31.7183 184.34 30.9264 184.34 29.8555C184.34 29.2744 184.42 28.6706 184.579 28.0439C184.739 27.4173 184.938 26.7964 185.177 26.1812C185.417 25.5545 185.684 24.9393 185.98 24.3354C186.277 23.7316 186.556 23.1619 186.818 22.6265C187.091 22.0796 187.336 21.5726 187.553 21.1055C187.769 20.6383 187.923 20.2282 188.014 19.875L187.912 19.7725C187.729 19.7725 187.484 19.8693 187.177 20.063C186.869 20.2567 186.522 20.4788 186.134 20.7295C185.758 20.9688 185.354 21.1966 184.921 21.4131C184.488 21.6296 184.049 21.7606 183.605 21.8062C183.582 21.9657 183.531 22.1992 183.451 22.5068C183.383 22.8145 183.286 23.1562 183.161 23.5322C183.035 23.9082 182.893 24.2956 182.733 24.6943C182.574 25.0931 182.409 25.4691 182.238 25.8223L182.067 26.1812L181.366 25.6514ZM182.204 18.7983C182.101 18.7983 182.016 18.8325 181.947 18.9009C181.879 18.9692 181.845 19.049 181.845 19.1401C181.845 19.2769 181.879 19.3965 181.947 19.499C182.016 19.5902 182.101 19.6699 182.204 19.7383C182.306 19.7952 182.409 19.8408 182.511 19.875C182.625 19.8978 182.722 19.9092 182.802 19.9092C182.802 19.5902 182.75 19.3281 182.648 19.123C182.545 18.9066 182.397 18.7983 182.204 18.7983ZM192.731 25.4805L192.56 25.8223L192.389 26.1812L191.688 25.6514L191.859 25.2925C192.144 24.7114 192.378 24.1304 192.56 23.5493C192.754 22.9569 192.908 22.4043 193.021 21.8916C193.147 21.3789 193.249 20.9289 193.329 20.5415C193.409 20.1541 193.489 19.875 193.568 19.7041C193.637 19.5674 193.734 19.4591 193.859 19.3794C193.996 19.2882 194.132 19.2142 194.269 19.1572C194.417 19.1003 194.554 19.0604 194.679 19.0376C194.816 19.0148 194.913 19.0034 194.97 19.0034C195.22 19.0034 195.386 19.0547 195.465 19.1572C195.556 19.2598 195.602 19.4421 195.602 19.7041C195.602 19.8294 195.574 20.1427 195.517 20.644C195.471 21.134 195.414 21.7549 195.346 22.5068C195.289 23.2474 195.232 24.0848 195.175 25.019C195.129 25.9419 195.106 26.8989 195.106 27.8901C195.106 28.6079 195.141 29.1776 195.209 29.5991C195.277 30.0093 195.363 30.3169 195.465 30.522C195.579 30.7271 195.699 30.8581 195.824 30.915C195.961 30.972 196.098 31.0005 196.234 31.0005C196.417 31.0005 196.622 30.9207 196.85 30.7612C197.077 30.6017 197.345 30.3226 197.653 29.9238C197.96 29.5137 198.314 28.9668 198.712 28.2832C199.111 27.5882 199.578 26.7109 200.114 25.6514L200.302 25.2925L201.002 25.8223L200.814 26.1812C200.382 27.0243 199.949 27.856 199.516 28.6763C199.094 29.4966 198.661 30.2257 198.217 30.8638C197.784 31.5018 197.345 32.0202 196.901 32.4189C196.457 32.8063 196.012 33 195.568 33C195.101 33 194.696 32.9089 194.354 32.7266C194.024 32.5329 193.745 32.2196 193.517 31.7866C193.301 31.3537 193.135 30.784 193.021 30.0776C192.919 29.3599 192.868 28.4769 192.868 27.4287C192.868 27.1325 192.868 26.8249 192.868 26.5059C192.868 26.1755 192.879 25.8337 192.902 25.4805H192.731ZM196.234 15.5C196.234 15.8988 196.098 16.2349 195.824 16.5083C195.562 16.7703 195.232 16.9014 194.833 16.9014C194.446 16.9014 194.115 16.7703 193.842 16.5083C193.568 16.2349 193.432 15.8988 193.432 15.5C193.432 15.1126 193.568 14.7822 193.842 14.5088C194.115 14.2354 194.446 14.0986 194.833 14.0986C195.232 14.0986 195.562 14.2354 195.824 14.5088C196.098 14.7822 196.234 15.1126 196.234 15.5ZM210.658 28.7617C210.658 29.4111 210.715 29.958 210.829 30.4023C210.943 30.8467 211.142 31.0688 211.427 31.0688C211.598 31.0688 211.78 30.9891 211.974 30.8296C212.179 30.6587 212.413 30.3853 212.675 30.0093C212.937 29.6333 213.233 29.1491 213.563 28.5566C213.905 27.9528 214.293 27.2179 214.726 26.3521L215.238 25.2925L215.939 25.8223L215.426 26.8818C214.948 27.8389 214.498 28.6991 214.076 29.4624C213.666 30.2144 213.273 30.8524 212.897 31.3765C212.521 31.9006 212.151 32.305 211.786 32.5898C211.433 32.8633 211.08 33 210.727 33C210.351 33 210.032 32.8975 209.77 32.6924C209.519 32.4873 209.308 32.2082 209.137 31.855C208.966 31.4904 208.835 31.0745 208.744 30.6074C208.653 30.1289 208.59 29.6219 208.556 29.0864C208.283 29.6333 207.981 30.146 207.65 30.6245C207.32 31.0916 206.972 31.5018 206.608 31.855C206.255 32.2082 205.884 32.4873 205.497 32.6924C205.11 32.8975 204.722 33 204.335 33C203.765 33 203.213 32.8804 202.677 32.6411C202.142 32.4019 201.663 32.0373 201.242 31.5474C200.832 31.0575 200.501 30.4422 200.25 29.7017C200 28.9497 199.875 28.0667 199.875 27.0527C199.875 25.8678 200.028 24.7855 200.336 23.8057C200.644 22.8145 201.059 21.9657 201.583 21.2593C202.108 20.5415 202.711 19.9889 203.395 19.6016C204.079 19.2028 204.796 19.0034 205.548 19.0034C206.004 19.0034 206.426 19.106 206.813 19.311C207.2 19.5161 207.536 19.7668 207.821 20.063C208.118 20.3478 208.362 20.6554 208.556 20.9858C208.75 21.3049 208.881 21.5783 208.949 21.8062L209.154 20.1484C209.177 19.932 209.28 19.7497 209.462 19.6016C209.656 19.4535 209.866 19.3395 210.094 19.2598C210.322 19.1686 210.544 19.106 210.761 19.0718C210.977 19.0262 211.131 19.0034 211.222 19.0034C211.359 19.0034 211.45 19.0262 211.496 19.0718C211.541 19.1174 211.564 19.2085 211.564 19.3452C211.564 19.5161 211.513 19.8636 211.41 20.3877C211.319 20.9004 211.216 21.5612 211.103 22.3701C211 23.1676 210.897 24.1076 210.795 25.1899C210.704 26.2723 210.658 27.4629 210.658 28.7617ZM208.778 24.25C208.778 23.7259 208.699 23.2132 208.539 22.7119C208.38 22.1992 208.163 21.7492 207.89 21.3618C207.616 20.9631 207.297 20.644 206.933 20.4048C206.579 20.1655 206.203 20.0459 205.805 20.0459C205.315 20.0459 204.853 20.1883 204.42 20.4731C203.999 20.7466 203.629 21.1396 203.31 21.6523C203.002 22.1536 202.757 22.7632 202.575 23.481C202.392 24.1873 202.301 24.9678 202.301 25.8223C202.301 27.5312 202.569 28.8358 203.104 29.7358C203.64 30.6245 204.352 31.0688 205.241 31.0688C205.628 31.0688 206.027 30.915 206.437 30.6074C206.859 30.2884 207.24 29.8384 207.582 29.2573C207.935 28.6649 208.22 27.9471 208.437 27.104C208.664 26.2609 208.778 25.3096 208.778 24.25Z" fill="white"/>
</svg>
